<mxfile host="app.diagrams.net" agent="Mozilla/5.0 (Windows NT 10.0; Win64; x64) AppleWebKit/537.36 (KHTML, like Gecko) Chrome/127.0.0.0 Safari/537.36" version="24.7.7">
  <diagram name="PÃ¡gina-1" id="TaM--8ME963jykFJIzcG">
    <mxGraphModel dx="1947" dy="434" grid="1" gridSize="10" guides="1" tooltips="1" connect="1" arrows="1" fold="1" page="1" pageScale="1" pageWidth="827" pageHeight="1169" math="0" shadow="0">
      <root>
        <mxCell id="0" />
        <mxCell id="1" parent="0" />
        <mxCell id="BsSf5HGkTNtAmCGuz6Yj-1" value="Persona" style="swimlane;fontStyle=1;align=center;verticalAlign=top;childLayout=stackLayout;horizontal=1;startSize=26;horizontalStack=0;resizeParent=1;resizeParentMax=0;resizeLast=0;collapsible=1;marginBottom=0;whiteSpace=wrap;html=1;" parent="1" vertex="1">
          <mxGeometry x="380" y="20" width="160" height="150" as="geometry">
            <mxRectangle x="350" y="30" width="100" height="30" as="alternateBounds" />
          </mxGeometry>
        </mxCell>
        <mxCell id="BsSf5HGkTNtAmCGuz6Yj-2" value="&lt;div&gt;&lt;span style=&quot;background-color: initial;&quot;&gt;id&lt;/span&gt;&lt;/div&gt;&lt;div&gt;&lt;span style=&quot;background-color: initial;&quot;&gt;nombre&lt;/span&gt;&lt;br&gt;&lt;/div&gt;&lt;div&gt;apellidos&lt;/div&gt;&lt;div&gt;telefono&lt;/div&gt;&lt;div&gt;direccion&lt;/div&gt;&lt;div&gt;fecha_nac&lt;/div&gt;&lt;div&gt;&lt;br&gt;&lt;/div&gt;" style="text;strokeColor=none;fillColor=none;align=left;verticalAlign=top;spacingLeft=4;spacingRight=4;overflow=hidden;rotatable=0;points=[[0,0.5],[1,0.5]];portConstraint=eastwest;whiteSpace=wrap;html=1;" parent="BsSf5HGkTNtAmCGuz6Yj-1" vertex="1">
          <mxGeometry y="26" width="160" height="94" as="geometry" />
        </mxCell>
        <mxCell id="BsSf5HGkTNtAmCGuz6Yj-3" value="" style="line;strokeWidth=1;fillColor=none;align=left;verticalAlign=middle;spacingTop=-1;spacingLeft=3;spacingRight=3;rotatable=0;labelPosition=right;points=[];portConstraint=eastwest;strokeColor=inherit;" parent="BsSf5HGkTNtAmCGuz6Yj-1" vertex="1">
          <mxGeometry y="120" width="160" height="8" as="geometry" />
        </mxCell>
        <mxCell id="BsSf5HGkTNtAmCGuz6Yj-4" value="+ method(type): type" style="text;strokeColor=none;fillColor=none;align=left;verticalAlign=top;spacingLeft=4;spacingRight=4;overflow=hidden;rotatable=0;points=[[0,0.5],[1,0.5]];portConstraint=eastwest;whiteSpace=wrap;html=1;" parent="BsSf5HGkTNtAmCGuz6Yj-1" vertex="1">
          <mxGeometry y="128" width="160" height="22" as="geometry" />
        </mxCell>
        <mxCell id="BsSf5HGkTNtAmCGuz6Yj-5" value="Odontologo" style="swimlane;fontStyle=1;align=center;verticalAlign=top;childLayout=stackLayout;horizontal=1;startSize=26;horizontalStack=0;resizeParent=1;resizeParentMax=0;resizeLast=0;collapsible=1;marginBottom=0;whiteSpace=wrap;html=1;" parent="1" vertex="1">
          <mxGeometry x="50" y="280" width="160" height="118" as="geometry" />
        </mxCell>
        <mxCell id="BsSf5HGkTNtAmCGuz6Yj-6" value="&lt;div&gt;especialidad&lt;/div&gt;" style="text;strokeColor=none;fillColor=none;align=left;verticalAlign=top;spacingLeft=4;spacingRight=4;overflow=hidden;rotatable=0;points=[[0,0.5],[1,0.5]];portConstraint=eastwest;whiteSpace=wrap;html=1;" parent="BsSf5HGkTNtAmCGuz6Yj-5" vertex="1">
          <mxGeometry y="26" width="160" height="54" as="geometry" />
        </mxCell>
        <mxCell id="BsSf5HGkTNtAmCGuz6Yj-7" value="" style="line;strokeWidth=1;fillColor=none;align=left;verticalAlign=middle;spacingTop=-1;spacingLeft=3;spacingRight=3;rotatable=0;labelPosition=right;points=[];portConstraint=eastwest;strokeColor=inherit;" parent="BsSf5HGkTNtAmCGuz6Yj-5" vertex="1">
          <mxGeometry y="80" width="160" height="8" as="geometry" />
        </mxCell>
        <mxCell id="BsSf5HGkTNtAmCGuz6Yj-8" value="+ method(type): type" style="text;strokeColor=none;fillColor=none;align=left;verticalAlign=top;spacingLeft=4;spacingRight=4;overflow=hidden;rotatable=0;points=[[0,0.5],[1,0.5]];portConstraint=eastwest;whiteSpace=wrap;html=1;" parent="BsSf5HGkTNtAmCGuz6Yj-5" vertex="1">
          <mxGeometry y="88" width="160" height="30" as="geometry" />
        </mxCell>
        <mxCell id="BsSf5HGkTNtAmCGuz6Yj-14" value="Tutor" style="swimlane;fontStyle=1;align=center;verticalAlign=top;childLayout=stackLayout;horizontal=1;startSize=26;horizontalStack=0;resizeParent=1;resizeParentMax=0;resizeLast=0;collapsible=1;marginBottom=0;whiteSpace=wrap;html=1;" parent="1" vertex="1">
          <mxGeometry x="610" y="280" width="160" height="114" as="geometry" />
        </mxCell>
        <mxCell id="BsSf5HGkTNtAmCGuz6Yj-15" value="&lt;div&gt;parentesco&lt;/div&gt;&lt;div&gt;&lt;br&gt;&lt;/div&gt;" style="text;strokeColor=none;fillColor=none;align=left;verticalAlign=top;spacingLeft=4;spacingRight=4;overflow=hidden;rotatable=0;points=[[0,0.5],[1,0.5]];portConstraint=eastwest;whiteSpace=wrap;html=1;" parent="BsSf5HGkTNtAmCGuz6Yj-14" vertex="1">
          <mxGeometry y="26" width="160" height="54" as="geometry" />
        </mxCell>
        <mxCell id="BsSf5HGkTNtAmCGuz6Yj-16" value="" style="line;strokeWidth=1;fillColor=none;align=left;verticalAlign=middle;spacingTop=-1;spacingLeft=3;spacingRight=3;rotatable=0;labelPosition=right;points=[];portConstraint=eastwest;strokeColor=inherit;" parent="BsSf5HGkTNtAmCGuz6Yj-14" vertex="1">
          <mxGeometry y="80" width="160" height="8" as="geometry" />
        </mxCell>
        <mxCell id="BsSf5HGkTNtAmCGuz6Yj-17" value="+ method(type): type" style="text;strokeColor=none;fillColor=none;align=left;verticalAlign=top;spacingLeft=4;spacingRight=4;overflow=hidden;rotatable=0;points=[[0,0.5],[1,0.5]];portConstraint=eastwest;whiteSpace=wrap;html=1;" parent="BsSf5HGkTNtAmCGuz6Yj-14" vertex="1">
          <mxGeometry y="88" width="160" height="26" as="geometry" />
        </mxCell>
        <mxCell id="BsSf5HGkTNtAmCGuz6Yj-33" value="Secretario" style="swimlane;fontStyle=1;align=center;verticalAlign=top;childLayout=stackLayout;horizontal=1;startSize=26;horizontalStack=0;resizeParent=1;resizeParentMax=0;resizeLast=0;collapsible=1;marginBottom=0;whiteSpace=wrap;html=1;" parent="1" vertex="1">
          <mxGeometry x="860" y="280" width="160" height="114" as="geometry" />
        </mxCell>
        <mxCell id="BsSf5HGkTNtAmCGuz6Yj-34" value="&lt;div&gt;sector&lt;/div&gt;" style="text;strokeColor=none;fillColor=none;align=left;verticalAlign=top;spacingLeft=4;spacingRight=4;overflow=hidden;rotatable=0;points=[[0,0.5],[1,0.5]];portConstraint=eastwest;whiteSpace=wrap;html=1;" parent="BsSf5HGkTNtAmCGuz6Yj-33" vertex="1">
          <mxGeometry y="26" width="160" height="54" as="geometry" />
        </mxCell>
        <mxCell id="BsSf5HGkTNtAmCGuz6Yj-35" value="" style="line;strokeWidth=1;fillColor=none;align=left;verticalAlign=middle;spacingTop=-1;spacingLeft=3;spacingRight=3;rotatable=0;labelPosition=right;points=[];portConstraint=eastwest;strokeColor=inherit;" parent="BsSf5HGkTNtAmCGuz6Yj-33" vertex="1">
          <mxGeometry y="80" width="160" height="8" as="geometry" />
        </mxCell>
        <mxCell id="BsSf5HGkTNtAmCGuz6Yj-36" value="+ method(type): type" style="text;strokeColor=none;fillColor=none;align=left;verticalAlign=top;spacingLeft=4;spacingRight=4;overflow=hidden;rotatable=0;points=[[0,0.5],[1,0.5]];portConstraint=eastwest;whiteSpace=wrap;html=1;" parent="BsSf5HGkTNtAmCGuz6Yj-33" vertex="1">
          <mxGeometry y="88" width="160" height="26" as="geometry" />
        </mxCell>
        <mxCell id="BsSf5HGkTNtAmCGuz6Yj-37" value="Cita" style="swimlane;fontStyle=1;align=center;verticalAlign=top;childLayout=stackLayout;horizontal=1;startSize=26;horizontalStack=0;resizeParent=1;resizeParentMax=0;resizeLast=0;collapsible=1;marginBottom=0;whiteSpace=wrap;html=1;" parent="1" vertex="1">
          <mxGeometry x="200" y="480" width="160" height="124" as="geometry" />
        </mxCell>
        <mxCell id="BsSf5HGkTNtAmCGuz6Yj-38" value="id_cita&lt;div&gt;fecha_cita&lt;/div&gt;&lt;div&gt;hora_cita&lt;/div&gt;&lt;div&gt;afeccion&lt;/div&gt;" style="text;strokeColor=none;fillColor=none;align=left;verticalAlign=top;spacingLeft=4;spacingRight=4;overflow=hidden;rotatable=0;points=[[0,0.5],[1,0.5]];portConstraint=eastwest;whiteSpace=wrap;html=1;" parent="BsSf5HGkTNtAmCGuz6Yj-37" vertex="1">
          <mxGeometry y="26" width="160" height="64" as="geometry" />
        </mxCell>
        <mxCell id="BsSf5HGkTNtAmCGuz6Yj-39" value="" style="line;strokeWidth=1;fillColor=none;align=left;verticalAlign=middle;spacingTop=-1;spacingLeft=3;spacingRight=3;rotatable=0;labelPosition=right;points=[];portConstraint=eastwest;strokeColor=inherit;" parent="BsSf5HGkTNtAmCGuz6Yj-37" vertex="1">
          <mxGeometry y="90" width="160" height="8" as="geometry" />
        </mxCell>
        <mxCell id="BsSf5HGkTNtAmCGuz6Yj-40" value="+ method(type): type" style="text;strokeColor=none;fillColor=none;align=left;verticalAlign=top;spacingLeft=4;spacingRight=4;overflow=hidden;rotatable=0;points=[[0,0.5],[1,0.5]];portConstraint=eastwest;whiteSpace=wrap;html=1;" parent="BsSf5HGkTNtAmCGuz6Yj-37" vertex="1">
          <mxGeometry y="98" width="160" height="26" as="geometry" />
        </mxCell>
        <mxCell id="BsSf5HGkTNtAmCGuz6Yj-41" value="Usuario" style="swimlane;fontStyle=1;align=center;verticalAlign=top;childLayout=stackLayout;horizontal=1;startSize=26;horizontalStack=0;resizeParent=1;resizeParentMax=0;resizeLast=0;collapsible=1;marginBottom=0;whiteSpace=wrap;html=1;" parent="1" vertex="1">
          <mxGeometry x="640" y="640" width="160" height="124" as="geometry" />
        </mxCell>
        <mxCell id="BsSf5HGkTNtAmCGuz6Yj-42" value="id_usuario&lt;div&gt;nombre_usuario&lt;/div&gt;&lt;div&gt;contrasenia&lt;/div&gt;&lt;div&gt;rol&lt;/div&gt;" style="text;strokeColor=none;fillColor=none;align=left;verticalAlign=top;spacingLeft=4;spacingRight=4;overflow=hidden;rotatable=0;points=[[0,0.5],[1,0.5]];portConstraint=eastwest;whiteSpace=wrap;html=1;" parent="BsSf5HGkTNtAmCGuz6Yj-41" vertex="1">
          <mxGeometry y="26" width="160" height="64" as="geometry" />
        </mxCell>
        <mxCell id="BsSf5HGkTNtAmCGuz6Yj-43" value="" style="line;strokeWidth=1;fillColor=none;align=left;verticalAlign=middle;spacingTop=-1;spacingLeft=3;spacingRight=3;rotatable=0;labelPosition=right;points=[];portConstraint=eastwest;strokeColor=inherit;" parent="BsSf5HGkTNtAmCGuz6Yj-41" vertex="1">
          <mxGeometry y="90" width="160" height="8" as="geometry" />
        </mxCell>
        <mxCell id="BsSf5HGkTNtAmCGuz6Yj-44" value="+ method(type): type" style="text;strokeColor=none;fillColor=none;align=left;verticalAlign=top;spacingLeft=4;spacingRight=4;overflow=hidden;rotatable=0;points=[[0,0.5],[1,0.5]];portConstraint=eastwest;whiteSpace=wrap;html=1;" parent="BsSf5HGkTNtAmCGuz6Yj-41" vertex="1">
          <mxGeometry y="98" width="160" height="26" as="geometry" />
        </mxCell>
        <mxCell id="BsSf5HGkTNtAmCGuz6Yj-45" value="Horario" style="swimlane;fontStyle=1;align=center;verticalAlign=top;childLayout=stackLayout;horizontal=1;startSize=26;horizontalStack=0;resizeParent=1;resizeParentMax=0;resizeLast=0;collapsible=1;marginBottom=0;whiteSpace=wrap;html=1;" parent="1" vertex="1">
          <mxGeometry x="-290" y="280" width="160" height="154" as="geometry" />
        </mxCell>
        <mxCell id="BsSf5HGkTNtAmCGuz6Yj-46" value="id_horario&lt;div&gt;horario_inicio&lt;/div&gt;&lt;div&gt;horario_fin&lt;/div&gt;&lt;div&gt;&lt;br&gt;&lt;/div&gt;" style="text;strokeColor=none;fillColor=none;align=left;verticalAlign=top;spacingLeft=4;spacingRight=4;overflow=hidden;rotatable=0;points=[[0,0.5],[1,0.5]];portConstraint=eastwest;whiteSpace=wrap;html=1;" parent="BsSf5HGkTNtAmCGuz6Yj-45" vertex="1">
          <mxGeometry y="26" width="160" height="94" as="geometry" />
        </mxCell>
        <mxCell id="BsSf5HGkTNtAmCGuz6Yj-47" value="" style="line;strokeWidth=1;fillColor=none;align=left;verticalAlign=middle;spacingTop=-1;spacingLeft=3;spacingRight=3;rotatable=0;labelPosition=right;points=[];portConstraint=eastwest;strokeColor=inherit;" parent="BsSf5HGkTNtAmCGuz6Yj-45" vertex="1">
          <mxGeometry y="120" width="160" height="8" as="geometry" />
        </mxCell>
        <mxCell id="BsSf5HGkTNtAmCGuz6Yj-48" value="+ method(type): type" style="text;strokeColor=none;fillColor=none;align=left;verticalAlign=top;spacingLeft=4;spacingRight=4;overflow=hidden;rotatable=0;points=[[0,0.5],[1,0.5]];portConstraint=eastwest;whiteSpace=wrap;html=1;" parent="BsSf5HGkTNtAmCGuz6Yj-45" vertex="1">
          <mxGeometry y="128" width="160" height="26" as="geometry" />
        </mxCell>
        <mxCell id="BsSf5HGkTNtAmCGuz6Yj-18" value="Extends" style="endArrow=block;endSize=16;endFill=0;html=1;rounded=0;exitX=0.5;exitY=0;exitDx=0;exitDy=0;entryX=0.481;entryY=1;entryDx=0;entryDy=0;entryPerimeter=0;" parent="1" edge="1">
          <mxGeometry width="160" relative="1" as="geometry">
            <mxPoint x="450" y="280" as="sourcePoint" />
            <mxPoint x="450.96000000000004" y="170" as="targetPoint" />
          </mxGeometry>
        </mxCell>
        <mxCell id="BsSf5HGkTNtAmCGuz6Yj-49" value="Paciente" style="swimlane;fontStyle=1;align=center;verticalAlign=top;childLayout=stackLayout;horizontal=1;startSize=26;horizontalStack=0;resizeParent=1;resizeParentMax=0;resizeLast=0;collapsible=1;marginBottom=0;whiteSpace=wrap;html=1;" parent="1" vertex="1">
          <mxGeometry x="340" y="280" width="150" height="114" as="geometry" />
        </mxCell>
        <mxCell id="BsSf5HGkTNtAmCGuz6Yj-50" value="&lt;div&gt;tiene_SS&lt;/div&gt;&lt;div&gt;tipo_sangre&lt;/div&gt;&lt;div&gt;&lt;br&gt;&lt;/div&gt;" style="text;strokeColor=none;fillColor=none;align=left;verticalAlign=top;spacingLeft=4;spacingRight=4;overflow=hidden;rotatable=0;points=[[0,0.5],[1,0.5]];portConstraint=eastwest;whiteSpace=wrap;html=1;" parent="BsSf5HGkTNtAmCGuz6Yj-49" vertex="1">
          <mxGeometry y="26" width="150" height="54" as="geometry" />
        </mxCell>
        <mxCell id="BsSf5HGkTNtAmCGuz6Yj-51" value="" style="line;strokeWidth=1;fillColor=none;align=left;verticalAlign=middle;spacingTop=-1;spacingLeft=3;spacingRight=3;rotatable=0;labelPosition=right;points=[];portConstraint=eastwest;strokeColor=inherit;" parent="BsSf5HGkTNtAmCGuz6Yj-49" vertex="1">
          <mxGeometry y="80" width="150" height="8" as="geometry" />
        </mxCell>
        <mxCell id="BsSf5HGkTNtAmCGuz6Yj-52" value="+ method(type): type" style="text;strokeColor=none;fillColor=none;align=left;verticalAlign=top;spacingLeft=4;spacingRight=4;overflow=hidden;rotatable=0;points=[[0,0.5],[1,0.5]];portConstraint=eastwest;whiteSpace=wrap;html=1;" parent="BsSf5HGkTNtAmCGuz6Yj-49" vertex="1">
          <mxGeometry y="88" width="150" height="26" as="geometry" />
        </mxCell>
        <mxCell id="BsSf5HGkTNtAmCGuz6Yj-55" value="" style="endArrow=none;html=1;rounded=0;elbow=vertical;entryX=0.328;entryY=1.13;entryDx=0;entryDy=0;entryPerimeter=0;" parent="1" target="BsSf5HGkTNtAmCGuz6Yj-8" edge="1">
          <mxGeometry width="50" height="50" relative="1" as="geometry">
            <mxPoint x="190" y="550" as="sourcePoint" />
            <mxPoint x="170" y="400" as="targetPoint" />
            <Array as="points">
              <mxPoint x="100" y="550" />
            </Array>
          </mxGeometry>
        </mxCell>
        <mxCell id="BsSf5HGkTNtAmCGuz6Yj-57" value="" style="endArrow=none;html=1;rounded=0;elbow=vertical;exitX=1.004;exitY=0.817;exitDx=0;exitDy=0;exitPerimeter=0;" parent="1" source="BsSf5HGkTNtAmCGuz6Yj-38" edge="1">
          <mxGeometry width="50" height="50" relative="1" as="geometry">
            <mxPoint x="280" y="480" as="sourcePoint" />
            <mxPoint x="420" y="400" as="targetPoint" />
            <Array as="points">
              <mxPoint x="420" y="560" />
            </Array>
          </mxGeometry>
        </mxCell>
        <mxCell id="BsSf5HGkTNtAmCGuz6Yj-58" value="1" style="text;html=1;align=center;verticalAlign=middle;resizable=0;points=[];autosize=1;strokeColor=none;fillColor=none;" parent="1" vertex="1">
          <mxGeometry x="65" y="408" width="30" height="30" as="geometry" />
        </mxCell>
        <mxCell id="BsSf5HGkTNtAmCGuz6Yj-59" value="*" style="text;html=1;align=center;verticalAlign=middle;resizable=0;points=[];autosize=1;strokeColor=none;fillColor=none;" parent="1" vertex="1">
          <mxGeometry x="165" y="548" width="30" height="30" as="geometry" />
        </mxCell>
        <mxCell id="BsSf5HGkTNtAmCGuz6Yj-60" value="1" style="text;html=1;align=center;verticalAlign=middle;resizable=0;points=[];autosize=1;strokeColor=none;fillColor=none;" parent="1" vertex="1">
          <mxGeometry x="425" y="388" width="30" height="30" as="geometry" />
        </mxCell>
        <mxCell id="BsSf5HGkTNtAmCGuz6Yj-61" value="*" style="text;html=1;align=center;verticalAlign=middle;resizable=0;points=[];autosize=1;strokeColor=none;fillColor=none;" parent="1" vertex="1">
          <mxGeometry x="365" y="528" width="30" height="30" as="geometry" />
        </mxCell>
        <mxCell id="BsSf5HGkTNtAmCGuz6Yj-62" value="" style="endArrow=none;html=1;rounded=0;elbow=vertical;entryX=-0.013;entryY=0.833;entryDx=0;entryDy=0;entryPerimeter=0;" parent="1" target="BsSf5HGkTNtAmCGuz6Yj-15" edge="1">
          <mxGeometry width="50" height="50" relative="1" as="geometry">
            <mxPoint x="490" y="350" as="sourcePoint" />
            <mxPoint x="540" y="300" as="targetPoint" />
          </mxGeometry>
        </mxCell>
        <mxCell id="BsSf5HGkTNtAmCGuz6Yj-63" value="1" style="text;html=1;align=center;verticalAlign=middle;resizable=0;points=[];autosize=1;strokeColor=none;fillColor=none;" parent="1" vertex="1">
          <mxGeometry x="485" y="318" width="30" height="30" as="geometry" />
        </mxCell>
        <mxCell id="BsSf5HGkTNtAmCGuz6Yj-64" value="1" style="text;html=1;align=center;verticalAlign=middle;resizable=0;points=[];autosize=1;strokeColor=none;fillColor=none;" parent="1" vertex="1">
          <mxGeometry x="575" y="348" width="30" height="30" as="geometry" />
        </mxCell>
        <mxCell id="BsSf5HGkTNtAmCGuz6Yj-66" value="" style="endArrow=none;html=1;rounded=0;elbow=vertical;entryX=-0.019;entryY=0.902;entryDx=0;entryDy=0;entryPerimeter=0;exitX=-0.002;exitY=1.191;exitDx=0;exitDy=0;exitPerimeter=0;" parent="1" source="BsSf5HGkTNtAmCGuz6Yj-8" target="BsSf5HGkTNtAmCGuz6Yj-42" edge="1">
          <mxGeometry width="50" height="50" relative="1" as="geometry">
            <mxPoint x="-40" y="360" as="sourcePoint" />
            <mxPoint x="220" y="710" as="targetPoint" />
            <Array as="points">
              <mxPoint x="50" y="720" />
            </Array>
          </mxGeometry>
        </mxCell>
        <mxCell id="BsSf5HGkTNtAmCGuz6Yj-67" value="" style="endArrow=none;html=1;rounded=0;elbow=vertical;entryX=0.879;entryY=1.094;entryDx=0;entryDy=0;entryPerimeter=0;exitX=1.038;exitY=0.817;exitDx=0;exitDy=0;exitPerimeter=0;" parent="1" source="BsSf5HGkTNtAmCGuz6Yj-42" target="BsSf5HGkTNtAmCGuz6Yj-36" edge="1">
          <mxGeometry width="50" height="50" relative="1" as="geometry">
            <mxPoint x="930" y="400" as="sourcePoint" />
            <mxPoint x="980" y="350" as="targetPoint" />
            <Array as="points">
              <mxPoint x="1000" y="720" />
            </Array>
          </mxGeometry>
        </mxCell>
        <mxCell id="BsSf5HGkTNtAmCGuz6Yj-68" value="1" style="text;html=1;align=center;verticalAlign=middle;resizable=0;points=[];autosize=1;strokeColor=none;fillColor=none;" parent="1" vertex="1">
          <mxGeometry x="15" y="388" width="30" height="30" as="geometry" />
        </mxCell>
        <mxCell id="BsSf5HGkTNtAmCGuz6Yj-69" value="1" style="text;html=1;align=center;verticalAlign=middle;resizable=0;points=[];autosize=1;strokeColor=none;fillColor=none;" parent="1" vertex="1">
          <mxGeometry x="615" y="718" width="30" height="30" as="geometry" />
        </mxCell>
        <mxCell id="BsSf5HGkTNtAmCGuz6Yj-70" value="1" style="text;html=1;align=center;verticalAlign=middle;resizable=0;points=[];autosize=1;strokeColor=none;fillColor=none;" parent="1" vertex="1">
          <mxGeometry x="810" y="718" width="30" height="30" as="geometry" />
        </mxCell>
        <mxCell id="BsSf5HGkTNtAmCGuz6Yj-71" value="1" style="text;html=1;align=center;verticalAlign=middle;resizable=0;points=[];autosize=1;strokeColor=none;fillColor=none;" parent="1" vertex="1">
          <mxGeometry x="1005" y="388" width="30" height="30" as="geometry" />
        </mxCell>
        <mxCell id="BsSf5HGkTNtAmCGuz6Yj-73" value="" style="endArrow=none;html=1;rounded=0;elbow=vertical;exitX=1;exitY=0.5;exitDx=0;exitDy=0;entryX=-0.002;entryY=0.901;entryDx=0;entryDy=0;entryPerimeter=0;" parent="1" source="BsSf5HGkTNtAmCGuz6Yj-46" target="BsSf5HGkTNtAmCGuz6Yj-6" edge="1">
          <mxGeometry width="50" height="50" relative="1" as="geometry">
            <mxPoint x="-60" y="400" as="sourcePoint" />
            <mxPoint x="-10" y="350" as="targetPoint" />
          </mxGeometry>
        </mxCell>
        <mxCell id="BsSf5HGkTNtAmCGuz6Yj-74" value="1" style="text;html=1;align=center;verticalAlign=middle;resizable=0;points=[];autosize=1;strokeColor=none;fillColor=none;" parent="1" vertex="1">
          <mxGeometry x="-125" y="318" width="30" height="30" as="geometry" />
        </mxCell>
        <mxCell id="BsSf5HGkTNtAmCGuz6Yj-75" value="1" style="text;html=1;align=center;verticalAlign=middle;resizable=0;points=[];autosize=1;strokeColor=none;fillColor=none;" parent="1" vertex="1">
          <mxGeometry x="25" y="318" width="30" height="30" as="geometry" />
        </mxCell>
        <mxCell id="BsSf5HGkTNtAmCGuz6Yj-79" value="" style="endArrow=none;html=1;rounded=0;elbow=vertical;" parent="1" edge="1">
          <mxGeometry width="50" height="50" relative="1" as="geometry">
            <mxPoint x="120" y="280" as="sourcePoint" />
            <mxPoint x="120" y="200" as="targetPoint" />
          </mxGeometry>
        </mxCell>
        <mxCell id="BsSf5HGkTNtAmCGuz6Yj-82" value="" style="endArrow=none;html=1;rounded=0;elbow=vertical;" parent="1" edge="1">
          <mxGeometry width="50" height="50" relative="1" as="geometry">
            <mxPoint x="700" y="280" as="sourcePoint" />
            <mxPoint x="700" y="200" as="targetPoint" />
          </mxGeometry>
        </mxCell>
        <mxCell id="BsSf5HGkTNtAmCGuz6Yj-83" value="" style="endArrow=none;html=1;rounded=0;elbow=vertical;" parent="1" edge="1">
          <mxGeometry width="50" height="50" relative="1" as="geometry">
            <mxPoint x="940" y="280" as="sourcePoint" />
            <mxPoint x="940" y="200" as="targetPoint" />
          </mxGeometry>
        </mxCell>
        <mxCell id="BsSf5HGkTNtAmCGuz6Yj-85" value="" style="endArrow=none;html=1;rounded=0;elbow=vertical;" parent="1" edge="1">
          <mxGeometry width="50" height="50" relative="1" as="geometry">
            <mxPoint x="450" y="200" as="sourcePoint" />
            <mxPoint x="940" y="200" as="targetPoint" />
          </mxGeometry>
        </mxCell>
        <mxCell id="G-b2oCFB5amytpcN-RTe-1" value="" style="endArrow=none;html=1;rounded=0;" parent="1" edge="1">
          <mxGeometry width="50" height="50" relative="1" as="geometry">
            <mxPoint x="120" y="200" as="sourcePoint" />
            <mxPoint x="450" y="200" as="targetPoint" />
          </mxGeometry>
        </mxCell>
      </root>
    </mxGraphModel>
  </diagram>
</mxfile>
